<svg xmlns="http://www.w3.org/2000/svg" width="80" height="80" viewBox="0 0 80 80" fill="none">
  <circle cx="40" cy="40" r="35" fill="#F2F3EA"/>
  <path d="M40 31C35 27 28 25 21 26V53C28 52 35 54 40 58M40 31C45 27 52 25 59 26V53C52 52 45 54 40 58M40 31V58" stroke="#62655D" stroke-width="2.2" stroke-linecap="round" stroke-linejoin="round"/>
  <path d="M40 25V17M40 23C35 22 32 19 32 15C37 15 40 18 40 23ZM40 23C45 22 48 19 48 15C43 15 40 18 40 23Z" stroke="#A6B474" stroke-width="2" stroke-linecap="round" stroke-linejoin="round"/>
</svg>
