<svg xmlns="http://www.w3.org/2000/svg" width="80" height="80" viewBox="0 0 80 80" fill="none">
  <circle cx="40" cy="40" r="35" fill="#F2F3EA"/>
  <path d="M29 32C23 31 19 35 20 41C17 44 19 49 23 50C22 55 26 58 31 56" stroke="#62655D" stroke-width="2.2" stroke-linecap="round" stroke-linejoin="round"/>
  <path d="M51 32C57 31 61 35 60 41C63 44 61 49 57 50C58 55 54 58 49 56" stroke="#62655D" stroke-width="2.2" stroke-linecap="round" stroke-linejoin="round"/>
  <path d="M31 28C29 24 32 20 36 21C38 17 44 18 45 22C49 21 52 25 50 29" stroke="#62655D" stroke-width="2.2" stroke-linecap="round" stroke-linejoin="round"/>
  <path d="M52 37C52 48 47 57 40 57C33 57 28 48 28 37C28 30 33 26 40 26C47 26 52 30 52 37Z" fill="#F2F3EA" stroke="#62655D" stroke-width="2.2"/>
  <circle cx="34.5" cy="37" r="2" fill="#62655D"/>
  <circle cx="45.5" cy="37" r="2" fill="#62655D"/>
  <path d="M32 45C32 41.5 35 40 40 40C45 40 48 41.5 48 45C48 50 44.5 53 40 53C35.5 53 32 50 32 45Z" fill="#F2F3EA" stroke="#62655D" stroke-width="2"/>
  <path d="M37 44C39 42.5 41 42.5 43 44C43 46.5 41.7 48 40 48C38.3 48 37 46.5 37 44Z" fill="#A6B474"/>
  <path d="M40 48V50M40 50C38.5 50 37.5 49.5 36.5 48.5M40 50C41.5 50 42.5 49.5 43.5 48.5" stroke="#62655D" stroke-width="1.4" stroke-linecap="round"/>
  <path d="M32 57C34 61 46 61 48 57" stroke="#A6B474" stroke-width="2.2" stroke-linecap="round"/>
</svg>
