<svg xmlns="http://www.w3.org/2000/svg" width="80" height="80" viewBox="0 0 80 80" fill="none">
  <circle cx="40" cy="40" r="35" fill="#F2F3EA"/>
  <path d="M40 46S28 39.5 28 31C28 26 34 23 38 28L40 30L42 28C46 23 52 26 52 31C52 39.5 40 46 40 46Z" fill="#A6B474"/>
  <path d="M17 49L27 44C30 42.5 33 43 36 45L40 48H49C52 48 54 50 54 53H38" stroke="#62655D" stroke-width="2.2" stroke-linecap="round" stroke-linejoin="round"/>
  <path d="M54 50L61 46C64 44 67 46 66 49L51 60H31L21 55" stroke="#62655D" stroke-width="2.2" stroke-linecap="round" stroke-linejoin="round"/>
</svg>
