<svg width="80" height="80" viewBox="0 0 80 80" xmlns="http://www.w3.org/2000/svg">
  <rect width="80" height="80" rx="16" fill="#F0FAFF"/>
  <rect x="1" y="1" width="78" height="78" rx="15" fill="none" stroke="#8ACCE8" stroke-width="1"/>
  <!-- Open book -->
  <path d="M40,52 L22,46 L22,26 L40,32 L58,26 L58,46 Z" fill="none" stroke="#2E8FAD" stroke-width="2" stroke-linecap="round" stroke-linejoin="round"/>
  <line x1="40" y1="32" x2="40" y2="52" stroke="#2E8FAD" stroke-width="1.5" stroke-linecap="round"/>
  <!-- Page lines left -->
  <line x1="26" y1="35" x2="37" y2="38" stroke="#8ACCE8" stroke-width="1.2" stroke-linecap="round"/>
  <line x1="26" y1="40" x2="37" y2="43" stroke="#8ACCE8" stroke-width="1.2" stroke-linecap="round"/>
  <!-- Page lines right -->
  <line x1="44" y1="35" x2="55" y2="32" stroke="#8ACCE8" stroke-width="1.2" stroke-linecap="round"/>
  <line x1="44" y1="40" x2="55" y2="37" stroke="#8ACCE8" stroke-width="1.2" stroke-linecap="round"/>
  <!-- Sprout above -->
  <line x1="40" y1="24" x2="40" y2="17" stroke="#2E8FAD" stroke-width="1.5" stroke-linecap="round"/>
  <path d="M40,20 Q34,14 36,10" fill="none" stroke="#2E8FAD" stroke-width="1.5" stroke-linecap="round"/>
  <path d="M40,20 Q46,14 44,10" fill="none" stroke="#2E8FAD" stroke-width="1.5" stroke-linecap="round"/>
  <text x="40" y="66" font-family="'Hiragino Kaku Gothic ProN','Noto Sans JP',sans-serif" font-size="9" text-anchor="middle" fill="#2E8FAD">樂於學習</text>
</svg>
